<svg width="190" height="60" viewBox="0 0 190 60" fill="none" xmlns="http://www.w3.org/2000/svg">
<path d="M63.6226 50.64C64.4226 50.64 65.0946 50.544 65.6386 50.352C66.1826 50.16 66.6146 49.904 66.9346 49.584C67.2653 49.264 67.5 48.8907 67.6386 48.464C67.788 48.0373 67.8626 47.584 67.8626 47.104C67.8626 46.6027 67.7826 46.1547 67.6226 45.76C67.4626 45.3547 67.212 45.0133 66.8706 44.736C66.5293 44.448 66.0866 44.2293 65.5426 44.08C65.0093 43.9307 64.364 43.856 63.6066 43.856H59.2706V50.64H63.6226ZM59.2706 34.192V40.88H62.6946C64.1666 40.88 65.276 40.6133 66.0226 40.08C66.78 39.5467 67.1586 38.6987 67.1586 37.536C67.1586 36.3307 66.8173 35.472 66.1346 34.96C65.452 34.448 64.3853 34.192 62.9346 34.192H59.2706ZM62.9346 30.864C64.4493 30.864 65.7453 31.008 66.8226 31.296C67.9 31.584 68.78 31.9947 69.4626 32.528C70.156 33.0613 70.6626 33.7067 70.9826 34.464C71.3026 35.2213 71.4626 36.0747 71.4626 37.024C71.4626 37.568 71.3826 38.0907 71.2226 38.592C71.0626 39.0827 70.812 39.5467 70.4706 39.984C70.14 40.4107 69.7133 40.8 69.1906 41.152C68.6786 41.504 68.0653 41.8027 67.3506 42.048C70.5293 42.7627 72.1186 44.48 72.1186 47.2C72.1186 48.1813 71.932 49.088 71.5586 49.92C71.1853 50.752 70.6413 51.472 69.9266 52.08C69.212 52.6773 68.332 53.1467 67.2866 53.488C66.2413 53.8293 65.0466 54 63.7026 54H54.9666V30.864H62.9346ZM89.2679 37.584V54H86.8519C86.3292 54 85.9985 53.76 85.8599 53.28L85.5879 51.968C84.9159 52.6507 84.1745 53.2053 83.3639 53.632C82.5532 54.048 81.5985 54.256 80.4999 54.256C79.6039 54.256 78.8092 54.1067 78.1159 53.808C77.4332 53.4987 76.8572 53.0667 76.3879 52.512C75.9185 51.9573 75.5612 51.3013 75.3159 50.544C75.0812 49.776 74.9639 48.9333 74.9639 48.016V37.584H78.9159V48.016C78.9159 49.0187 79.1452 49.7973 79.6039 50.352C80.0732 50.896 80.7719 51.168 81.6999 51.168C82.3825 51.168 83.0225 51.0187 83.6199 50.72C84.2172 50.4107 84.7825 49.9893 85.3159 49.456V37.584H89.2679ZM103.49 41.776C103.042 41.232 102.552 40.848 102.018 40.624C101.496 40.4 100.93 40.288 100.322 40.288C99.725 40.288 99.1864 40.4 98.7064 40.624C98.2264 40.848 97.8157 41.1893 97.4744 41.648C97.133 42.096 96.8717 42.672 96.6904 43.376C96.509 44.0693 96.4184 44.8907 96.4184 45.84C96.4184 46.8 96.493 47.616 96.6424 48.288C96.8024 48.9493 97.0264 49.4933 97.3144 49.92C97.6024 50.336 97.9544 50.64 98.3704 50.832C98.7864 51.0133 99.2504 51.104 99.7624 51.104C100.584 51.104 101.282 50.9333 101.858 50.592C102.434 50.2507 102.978 49.7653 103.49 49.136V41.776ZM107.442 30.224V54H105.026C104.504 54 104.173 53.76 104.034 53.28L103.698 51.696C103.037 52.4533 102.274 53.0667 101.41 53.536C100.557 54.0053 99.5597 54.24 98.4184 54.24C97.5224 54.24 96.701 54.0533 95.9544 53.68C95.2077 53.3067 94.5624 52.768 94.0184 52.064C93.485 51.3493 93.069 50.4693 92.7704 49.424C92.4824 48.3787 92.3384 47.184 92.3384 45.84C92.3384 44.624 92.5037 43.4933 92.8344 42.448C93.165 41.4027 93.6397 40.496 94.2584 39.728C94.877 38.96 95.6184 38.3627 96.4824 37.936C97.3464 37.4987 98.317 37.28 99.3944 37.28C100.312 37.28 101.096 37.424 101.746 37.712C102.397 38 102.978 38.3893 103.49 38.88V30.224H107.442ZM117.343 45.392C117.833 45.392 118.26 45.328 118.623 45.2C118.985 45.0613 119.284 44.8747 119.519 44.64C119.764 44.4053 119.945 44.1227 120.063 43.792C120.191 43.4613 120.255 43.0987 120.255 42.704C120.255 41.8933 120.009 41.2533 119.519 40.784C119.039 40.304 118.313 40.064 117.343 40.064C116.372 40.064 115.641 40.304 115.151 40.784C114.671 41.2533 114.431 41.8933 114.431 42.704C114.431 43.088 114.489 43.4453 114.607 43.776C114.735 44.1067 114.916 44.3947 115.151 44.64C115.396 44.8747 115.7 45.0613 116.063 45.2C116.436 45.328 116.863 45.392 117.343 45.392ZM121.807 54.736C121.807 54.416 121.711 54.1547 121.519 53.952C121.327 53.7493 121.065 53.5947 120.735 53.488C120.404 53.3707 120.015 53.2853 119.567 53.232C119.129 53.1787 118.66 53.1413 118.159 53.12C117.668 53.088 117.156 53.0613 116.623 53.04C116.1 53.0187 115.588 52.976 115.087 52.912C114.649 53.1573 114.292 53.4453 114.015 53.776C113.748 54.1067 113.615 54.4907 113.615 54.928C113.615 55.216 113.684 55.4827 113.823 55.728C113.972 55.984 114.201 56.2027 114.511 56.384C114.831 56.5653 115.241 56.704 115.743 56.8C116.244 56.9067 116.857 56.96 117.583 56.96C118.319 56.96 118.953 56.9013 119.487 56.784C120.02 56.6773 120.457 56.5227 120.799 56.32C121.151 56.128 121.407 55.8933 121.567 55.616C121.727 55.3493 121.807 55.056 121.807 54.736ZM125.743 38.144V39.616C125.743 40.0853 125.46 40.3733 124.895 40.48L123.423 40.752C123.647 41.3173 123.759 41.936 123.759 42.608C123.759 43.4187 123.593 44.1547 123.263 44.816C122.943 45.4667 122.495 46.0213 121.919 46.48C121.343 46.9387 120.66 47.296 119.871 47.552C119.092 47.7973 118.249 47.92 117.343 47.92C117.023 47.92 116.713 47.904 116.415 47.872C116.116 47.84 115.823 47.7973 115.535 47.744C115.023 48.0533 114.767 48.4 114.767 48.784C114.767 49.1147 114.916 49.36 115.215 49.52C115.524 49.6693 115.929 49.776 116.431 49.84C116.932 49.904 117.503 49.9467 118.143 49.968C118.783 49.9787 119.439 50.0107 120.111 50.064C120.783 50.1173 121.439 50.2133 122.079 50.352C122.719 50.48 123.289 50.688 123.791 50.976C124.292 51.264 124.692 51.6587 124.991 52.16C125.3 52.6507 125.455 53.2853 125.455 54.064C125.455 54.7893 125.273 55.4933 124.911 56.176C124.559 56.8587 124.041 57.4667 123.359 58C122.687 58.5333 121.855 58.96 120.863 59.28C119.881 59.6107 118.761 59.776 117.503 59.776C116.265 59.776 115.188 59.6533 114.271 59.408C113.353 59.1733 112.591 58.8533 111.983 58.448C111.375 58.0533 110.921 57.5947 110.623 57.072C110.324 56.5493 110.175 56.0053 110.175 55.44C110.175 54.672 110.404 54.032 110.863 53.52C111.332 52.9973 111.972 52.5813 112.783 52.272C112.345 52.048 111.999 51.7493 111.743 51.376C111.487 51.0027 111.359 50.512 111.359 49.904C111.359 49.6587 111.401 49.408 111.487 49.152C111.583 48.8853 111.716 48.624 111.887 48.368C112.068 48.112 112.292 47.872 112.559 47.648C112.825 47.4133 113.14 47.2053 113.503 47.024C112.671 46.576 112.015 45.9787 111.535 45.232C111.065 44.4853 110.831 43.6107 110.831 42.608C110.831 41.7973 110.991 41.0667 111.311 40.416C111.641 39.7547 112.095 39.1947 112.671 38.736C113.257 38.2667 113.945 37.9093 114.735 37.664C115.535 37.4187 116.404 37.296 117.343 37.296C118.047 37.296 118.708 37.3707 119.327 37.52C119.945 37.6587 120.511 37.8667 121.023 38.144H125.743ZM138.544 43.904C138.544 43.392 138.469 42.912 138.32 42.464C138.181 42.0053 137.968 41.6053 137.68 41.264C137.392 40.9227 137.024 40.656 136.576 40.464C136.138 40.2613 135.626 40.16 135.04 40.16C133.898 40.16 132.997 40.4853 132.336 41.136C131.685 41.7867 131.269 42.7093 131.088 43.904H138.544ZM131.008 46.288C131.072 47.1307 131.221 47.8613 131.456 48.48C131.69 49.088 132 49.5947 132.384 50C132.768 50.3947 133.221 50.6933 133.744 50.896C134.277 51.088 134.864 51.184 135.504 51.184C136.144 51.184 136.693 51.1093 137.152 50.96C137.621 50.8107 138.026 50.6453 138.368 50.464C138.72 50.2827 139.024 50.1173 139.28 49.968C139.546 49.8187 139.802 49.744 140.048 49.744C140.378 49.744 140.624 49.8667 140.784 50.112L141.92 51.552C141.482 52.064 140.992 52.496 140.448 52.848C139.904 53.1893 139.333 53.4667 138.736 53.68C138.149 53.8827 137.546 54.0267 136.928 54.112C136.32 54.1973 135.728 54.24 135.152 54.24C134.01 54.24 132.949 54.0533 131.968 53.68C130.986 53.296 130.133 52.736 129.408 52C128.682 51.2533 128.112 50.336 127.696 49.248C127.28 48.1493 127.072 46.88 127.072 45.44C127.072 44.32 127.253 43.2693 127.616 42.288C127.978 41.296 128.496 40.4373 129.168 39.712C129.85 38.976 130.677 38.3947 131.648 37.968C132.629 37.5413 133.733 37.328 134.96 37.328C135.994 37.328 136.949 37.4933 137.824 37.824C138.698 38.1547 139.45 38.64 140.08 39.28C140.709 39.9093 141.2 40.688 141.552 41.616C141.914 42.5333 142.096 43.584 142.096 44.768C142.096 45.3653 142.032 45.7707 141.904 45.984C141.776 46.1867 141.53 46.288 141.168 46.288H131.008ZM161.465 54H157.513V40.544H149.897V49.44C149.897 49.952 150.02 50.352 150.265 50.64C150.521 50.928 150.868 51.072 151.305 51.072C151.55 51.072 151.753 51.0453 151.913 50.992C152.084 50.928 152.228 50.864 152.345 50.8C152.473 50.736 152.585 50.6773 152.681 50.624C152.777 50.56 152.873 50.528 152.969 50.528C153.086 50.528 153.182 50.56 153.257 50.624C153.332 50.6773 153.412 50.7627 153.497 50.88L154.681 52.8C154.105 53.28 153.444 53.6427 152.697 53.888C151.95 54.1333 151.177 54.256 150.377 54.256C148.948 54.256 147.849 53.856 147.081 53.056C146.324 52.2453 145.945 51.1307 145.945 49.712V40.544H144.265C144.052 40.544 143.87 40.4747 143.721 40.336C143.572 40.1973 143.497 39.9893 143.497 39.712V38.144L146.137 37.696L146.969 33.232C147.022 33.0187 147.124 32.8533 147.273 32.736C147.422 32.6187 147.614 32.56 147.849 32.56H149.897V37.728H161.465V54ZM162.153 32.736C162.153 33.0773 162.084 33.4027 161.945 33.712C161.806 34.0107 161.62 34.272 161.385 34.496C161.161 34.72 160.889 34.9013 160.569 35.04C160.26 35.168 159.929 35.232 159.577 35.232C159.236 35.232 158.916 35.168 158.617 35.04C158.318 34.9013 158.057 34.72 157.833 34.496C157.609 34.272 157.428 34.0107 157.289 33.712C157.161 33.4027 157.097 33.0773 157.097 32.736C157.097 32.384 157.161 32.0587 157.289 31.76C157.428 31.4507 157.609 31.184 157.833 30.96C158.057 30.7253 158.318 30.544 158.617 30.416C158.916 30.2773 159.236 30.208 159.577 30.208C159.929 30.208 160.26 30.2773 160.569 30.416C160.889 30.544 161.161 30.7253 161.385 30.96C161.62 31.184 161.806 31.4507 161.945 31.76C162.084 32.0587 162.153 32.384 162.153 32.736ZM169.195 39.6C169.526 39.2693 169.872 38.9653 170.235 38.688C170.608 38.4 170.998 38.16 171.403 37.968C171.819 37.7653 172.262 37.6107 172.731 37.504C173.2 37.3867 173.712 37.328 174.267 37.328C175.163 37.328 175.958 37.4827 176.651 37.792C177.344 38.0907 177.92 38.5173 178.379 39.072C178.848 39.616 179.2 40.272 179.435 41.04C179.68 41.7973 179.803 42.6347 179.803 43.552V54H175.851V43.552C175.851 42.5493 175.622 41.776 175.163 41.232C174.704 40.6773 174.006 40.4 173.067 40.4C172.384 40.4 171.744 40.5547 171.147 40.864C170.55 41.1733 169.984 41.5947 169.451 42.128V54H165.499V37.584H167.915C168.427 37.584 168.763 37.824 168.923 38.304L169.195 39.6Z" fill="#15B7B9"/>
<path fill-rule="evenodd" clip-rule="evenodd" d="M0 40C0 38.8954 0.895431 38 2 38H6C7.10457 38 8 38.8954 8 40V56C8 57.1046 7.10457 58 6 58H2C0.895431 58 0 57.1046 0 56V40Z" fill="#15B7B9"/>
<path fill-rule="evenodd" clip-rule="evenodd" d="M10 33C10 31.8954 10.8954 31 12 31H16C17.1046 31 18 31.8954 18 33V56C18 57.1046 17.1046 58 16 58H12C10.8954 58 10 57.1046 10 56V33Z" fill="#15B7B9"/>
<path fill-rule="evenodd" clip-rule="evenodd" d="M20 27C20 25.8954 20.8954 25 22 25H26C27.1046 25 28 25.8954 28 27V56C28 57.1046 27.1046 58 26 58H22C20.8954 58 20 57.1046 20 56V27Z" fill="#15B7B9"/>
<path fill-rule="evenodd" clip-rule="evenodd" d="M30 19C30 17.8954 30.8954 17 32 17H36C37.1046 17 38 17.8954 38 19V56C38 57.1046 37.1046 58 36 58H32C30.8954 58 30 57.1046 30 56V19Z" fill="#15B7B9"/>
<path fill-rule="evenodd" clip-rule="evenodd" d="M40 30C40 28.8954 40.8954 28 42 28H46C47.1046 28 48 28.8954 48 30V56C48 57.1046 47.1046 58 46 58H42C40.8954 58 40 57.1046 40 56V30Z" fill="#15B7B9"/>
<path d="M18.8526 20.3562C19.1017 19.8117 19.1822 19.2051 19.0836 18.6145C18.9851 18.0238 18.7121 17.4762 18.2997 17.042L15.4223 14.2634C14.85 13.7107 14.0815 13.4079 13.286 13.4218C12.4904 13.4357 11.733 13.7651 11.1803 14.3374C10.6276 14.9097 10.3249 15.6782 10.3388 16.4737C10.3527 17.2693 10.682 18.0267 11.2544 18.5794L14.1317 21.358C14.7041 21.9107 15.0334 22.6682 15.0473 23.4637C15.0612 24.2592 14.7585 25.0277 14.2058 25.6C13.6531 26.1724 12.8956 26.5017 12.1001 26.5156C11.3046 26.5295 10.5361 26.2268 9.96376 25.6741L7.0864 22.8954C6.674 22.4613 6.40096 21.9136 6.30242 21.323C6.20389 20.7323 6.28437 20.1257 6.5335 19.5812" stroke="#15B7B9" stroke-width="2" stroke-linecap="round" stroke-linejoin="round"/>
<path d="M23.3882 9L16.9352 15.6823M8.45303 24.4658L2.00005 31.1481" stroke="#15B7B9" stroke-width="2" stroke-linecap="round" stroke-linejoin="round"/>
<path d="M18.3316 7.54069L28.9547 3.34436C29.1713 3.28375 29.3708 3.48326 29.3102 3.69982L25.1138 14.323C25.0408 14.5837 24.6812 14.6092 24.5722 14.3614L22.6988 10.1036C22.6698 10.0376 22.617 9.98478 22.551 9.95579L18.2932 8.08232C18.0453 7.9733 18.0708 7.61371 18.3316 7.54069Z" fill="#15B7B9" stroke="#15B7B9" stroke-width="1.5" stroke-linecap="round" stroke-linejoin="round"/>
</svg>
