<svg width="190" height="58" viewBox="0 0 190 58" fill="none" xmlns="http://www.w3.org/2000/svg">
<path d="M63.6226 46.64C64.4226 46.64 65.0946 46.544 65.6386 46.352C66.1826 46.16 66.6146 45.904 66.9346 45.584C67.2653 45.264 67.5 44.8907 67.6386 44.464C67.788 44.0373 67.8626 43.584 67.8626 43.104C67.8626 42.6027 67.7826 42.1547 67.6226 41.76C67.4626 41.3547 67.212 41.0133 66.8706 40.736C66.5293 40.448 66.0866 40.2293 65.5426 40.08C65.0093 39.9307 64.364 39.856 63.6066 39.856H59.2706V46.64H63.6226ZM59.2706 30.192V36.88H62.6946C64.1666 36.88 65.276 36.6133 66.0226 36.08C66.78 35.5467 67.1586 34.6987 67.1586 33.536C67.1586 32.3307 66.8173 31.472 66.1346 30.96C65.452 30.448 64.3853 30.192 62.9346 30.192H59.2706ZM62.9346 26.864C64.4493 26.864 65.7453 27.008 66.8226 27.296C67.9 27.584 68.78 27.9947 69.4626 28.528C70.156 29.0613 70.6626 29.7067 70.9826 30.464C71.3026 31.2213 71.4626 32.0747 71.4626 33.024C71.4626 33.568 71.3826 34.0907 71.2226 34.592C71.0626 35.0827 70.812 35.5467 70.4706 35.984C70.14 36.4107 69.7133 36.8 69.1906 37.152C68.6786 37.504 68.0653 37.8027 67.3506 38.048C70.5293 38.7627 72.1186 40.48 72.1186 43.2C72.1186 44.1813 71.932 45.088 71.5586 45.92C71.1853 46.752 70.6413 47.472 69.9266 48.08C69.212 48.6773 68.332 49.1467 67.2866 49.488C66.2413 49.8293 65.0466 50 63.7026 50H54.9666V26.864H62.9346ZM89.2679 33.584V50H86.8519C86.3292 50 85.9985 49.76 85.8599 49.28L85.5879 47.968C84.9159 48.6507 84.1745 49.2053 83.3639 49.632C82.5532 50.048 81.5985 50.256 80.4999 50.256C79.6039 50.256 78.8092 50.1067 78.1159 49.808C77.4332 49.4987 76.8572 49.0667 76.3879 48.512C75.9185 47.9573 75.5612 47.3013 75.3159 46.544C75.0812 45.776 74.9639 44.9333 74.9639 44.016V33.584H78.9159V44.016C78.9159 45.0187 79.1452 45.7973 79.6039 46.352C80.0732 46.896 80.7719 47.168 81.6999 47.168C82.3825 47.168 83.0225 47.0187 83.6199 46.72C84.2172 46.4107 84.7825 45.9893 85.3159 45.456V33.584H89.2679ZM103.49 37.776C103.042 37.232 102.552 36.848 102.018 36.624C101.496 36.4 100.93 36.288 100.322 36.288C99.725 36.288 99.1864 36.4 98.7064 36.624C98.2264 36.848 97.8157 37.1893 97.4744 37.648C97.133 38.096 96.8717 38.672 96.6904 39.376C96.509 40.0693 96.4184 40.8907 96.4184 41.84C96.4184 42.8 96.493 43.616 96.6424 44.288C96.8024 44.9493 97.0264 45.4933 97.3144 45.92C97.6024 46.336 97.9544 46.64 98.3704 46.832C98.7864 47.0133 99.2504 47.104 99.7624 47.104C100.584 47.104 101.282 46.9333 101.858 46.592C102.434 46.2507 102.978 45.7653 103.49 45.136V37.776ZM107.442 26.224V50H105.026C104.504 50 104.173 49.76 104.034 49.28L103.698 47.696C103.037 48.4533 102.274 49.0667 101.41 49.536C100.557 50.0053 99.5597 50.24 98.4184 50.24C97.5224 50.24 96.701 50.0533 95.9544 49.68C95.2077 49.3067 94.5624 48.768 94.0184 48.064C93.485 47.3493 93.069 46.4693 92.7704 45.424C92.4824 44.3787 92.3384 43.184 92.3384 41.84C92.3384 40.624 92.5037 39.4933 92.8344 38.448C93.165 37.4027 93.6397 36.496 94.2584 35.728C94.877 34.96 95.6184 34.3627 96.4824 33.936C97.3464 33.4987 98.317 33.28 99.3944 33.28C100.312 33.28 101.096 33.424 101.746 33.712C102.397 34 102.978 34.3893 103.49 34.88V26.224H107.442ZM117.343 41.392C117.833 41.392 118.26 41.328 118.623 41.2C118.985 41.0613 119.284 40.8747 119.519 40.64C119.764 40.4053 119.945 40.1227 120.063 39.792C120.191 39.4613 120.255 39.0987 120.255 38.704C120.255 37.8933 120.009 37.2533 119.519 36.784C119.039 36.304 118.313 36.064 117.343 36.064C116.372 36.064 115.641 36.304 115.151 36.784C114.671 37.2533 114.431 37.8933 114.431 38.704C114.431 39.088 114.489 39.4453 114.607 39.776C114.735 40.1067 114.916 40.3947 115.151 40.64C115.396 40.8747 115.7 41.0613 116.063 41.2C116.436 41.328 116.863 41.392 117.343 41.392ZM121.807 50.736C121.807 50.416 121.711 50.1547 121.519 49.952C121.327 49.7493 121.065 49.5947 120.735 49.488C120.404 49.3707 120.015 49.2853 119.567 49.232C119.129 49.1787 118.66 49.1413 118.159 49.12C117.668 49.088 117.156 49.0613 116.623 49.04C116.1 49.0187 115.588 48.976 115.087 48.912C114.649 49.1573 114.292 49.4453 114.015 49.776C113.748 50.1067 113.615 50.4907 113.615 50.928C113.615 51.216 113.684 51.4827 113.823 51.728C113.972 51.984 114.201 52.2027 114.511 52.384C114.831 52.5653 115.241 52.704 115.743 52.8C116.244 52.9067 116.857 52.96 117.583 52.96C118.319 52.96 118.953 52.9013 119.487 52.784C120.02 52.6773 120.457 52.5227 120.799 52.32C121.151 52.128 121.407 51.8933 121.567 51.616C121.727 51.3493 121.807 51.056 121.807 50.736ZM125.743 34.144V35.616C125.743 36.0853 125.46 36.3733 124.895 36.48L123.423 36.752C123.647 37.3173 123.759 37.936 123.759 38.608C123.759 39.4187 123.593 40.1547 123.263 40.816C122.943 41.4667 122.495 42.0213 121.919 42.48C121.343 42.9387 120.66 43.296 119.871 43.552C119.092 43.7973 118.249 43.92 117.343 43.92C117.023 43.92 116.713 43.904 116.415 43.872C116.116 43.84 115.823 43.7973 115.535 43.744C115.023 44.0533 114.767 44.4 114.767 44.784C114.767 45.1147 114.916 45.36 115.215 45.52C115.524 45.6693 115.929 45.776 116.431 45.84C116.932 45.904 117.503 45.9467 118.143 45.968C118.783 45.9787 119.439 46.0107 120.111 46.064C120.783 46.1173 121.439 46.2133 122.079 46.352C122.719 46.48 123.289 46.688 123.791 46.976C124.292 47.264 124.692 47.6587 124.991 48.16C125.3 48.6507 125.455 49.2853 125.455 50.064C125.455 50.7893 125.273 51.4933 124.911 52.176C124.559 52.8587 124.041 53.4667 123.359 54C122.687 54.5333 121.855 54.96 120.863 55.28C119.881 55.6107 118.761 55.776 117.503 55.776C116.265 55.776 115.188 55.6533 114.271 55.408C113.353 55.1733 112.591 54.8533 111.983 54.448C111.375 54.0533 110.921 53.5947 110.623 53.072C110.324 52.5493 110.175 52.0053 110.175 51.44C110.175 50.672 110.404 50.032 110.863 49.52C111.332 48.9973 111.972 48.5813 112.783 48.272C112.345 48.048 111.999 47.7493 111.743 47.376C111.487 47.0027 111.359 46.512 111.359 45.904C111.359 45.6587 111.401 45.408 111.487 45.152C111.583 44.8853 111.716 44.624 111.887 44.368C112.068 44.112 112.292 43.872 112.559 43.648C112.825 43.4133 113.14 43.2053 113.503 43.024C112.671 42.576 112.015 41.9787 111.535 41.232C111.065 40.4853 110.831 39.6107 110.831 38.608C110.831 37.7973 110.991 37.0667 111.311 36.416C111.641 35.7547 112.095 35.1947 112.671 34.736C113.257 34.2667 113.945 33.9093 114.735 33.664C115.535 33.4187 116.404 33.296 117.343 33.296C118.047 33.296 118.708 33.3707 119.327 33.52C119.945 33.6587 120.511 33.8667 121.023 34.144H125.743ZM138.544 39.904C138.544 39.392 138.469 38.912 138.32 38.464C138.181 38.0053 137.968 37.6053 137.68 37.264C137.392 36.9227 137.024 36.656 136.576 36.464C136.138 36.2613 135.626 36.16 135.04 36.16C133.898 36.16 132.997 36.4853 132.336 37.136C131.685 37.7867 131.269 38.7093 131.088 39.904H138.544ZM131.008 42.288C131.072 43.1307 131.221 43.8613 131.456 44.48C131.69 45.088 132 45.5947 132.384 46C132.768 46.3947 133.221 46.6933 133.744 46.896C134.277 47.088 134.864 47.184 135.504 47.184C136.144 47.184 136.693 47.1093 137.152 46.96C137.621 46.8107 138.026 46.6453 138.368 46.464C138.72 46.2827 139.024 46.1173 139.28 45.968C139.546 45.8187 139.802 45.744 140.048 45.744C140.378 45.744 140.624 45.8667 140.784 46.112L141.92 47.552C141.482 48.064 140.992 48.496 140.448 48.848C139.904 49.1893 139.333 49.4667 138.736 49.68C138.149 49.8827 137.546 50.0267 136.928 50.112C136.32 50.1973 135.728 50.24 135.152 50.24C134.01 50.24 132.949 50.0533 131.968 49.68C130.986 49.296 130.133 48.736 129.408 48C128.682 47.2533 128.112 46.336 127.696 45.248C127.28 44.1493 127.072 42.88 127.072 41.44C127.072 40.32 127.253 39.2693 127.616 38.288C127.978 37.296 128.496 36.4373 129.168 35.712C129.85 34.976 130.677 34.3947 131.648 33.968C132.629 33.5413 133.733 33.328 134.96 33.328C135.994 33.328 136.949 33.4933 137.824 33.824C138.698 34.1547 139.45 34.64 140.08 35.28C140.709 35.9093 141.2 36.688 141.552 37.616C141.914 38.5333 142.096 39.584 142.096 40.768C142.096 41.3653 142.032 41.7707 141.904 41.984C141.776 42.1867 141.53 42.288 141.168 42.288H131.008ZM161.465 50H157.513V36.544H149.897V45.44C149.897 45.952 150.02 46.352 150.265 46.64C150.521 46.928 150.868 47.072 151.305 47.072C151.55 47.072 151.753 47.0453 151.913 46.992C152.084 46.928 152.228 46.864 152.345 46.8C152.473 46.736 152.585 46.6773 152.681 46.624C152.777 46.56 152.873 46.528 152.969 46.528C153.086 46.528 153.182 46.56 153.257 46.624C153.332 46.6773 153.412 46.7627 153.497 46.88L154.681 48.8C154.105 49.28 153.444 49.6427 152.697 49.888C151.95 50.1333 151.177 50.256 150.377 50.256C148.948 50.256 147.849 49.856 147.081 49.056C146.324 48.2453 145.945 47.1307 145.945 45.712V36.544H144.265C144.052 36.544 143.87 36.4747 143.721 36.336C143.572 36.1973 143.497 35.9893 143.497 35.712V34.144L146.137 33.696L146.969 29.232C147.022 29.0187 147.124 28.8533 147.273 28.736C147.422 28.6187 147.614 28.56 147.849 28.56H149.897V33.728H161.465V50ZM162.153 28.736C162.153 29.0773 162.084 29.4027 161.945 29.712C161.806 30.0107 161.62 30.272 161.385 30.496C161.161 30.72 160.889 30.9013 160.569 31.04C160.26 31.168 159.929 31.232 159.577 31.232C159.236 31.232 158.916 31.168 158.617 31.04C158.318 30.9013 158.057 30.72 157.833 30.496C157.609 30.272 157.428 30.0107 157.289 29.712C157.161 29.4027 157.097 29.0773 157.097 28.736C157.097 28.384 157.161 28.0587 157.289 27.76C157.428 27.4507 157.609 27.184 157.833 26.96C158.057 26.7253 158.318 26.544 158.617 26.416C158.916 26.2773 159.236 26.208 159.577 26.208C159.929 26.208 160.26 26.2773 160.569 26.416C160.889 26.544 161.161 26.7253 161.385 26.96C161.62 27.184 161.806 27.4507 161.945 27.76C162.084 28.0587 162.153 28.384 162.153 28.736ZM169.195 35.6C169.526 35.2693 169.872 34.9653 170.235 34.688C170.608 34.4 170.998 34.16 171.403 33.968C171.819 33.7653 172.262 33.6107 172.731 33.504C173.2 33.3867 173.712 33.328 174.267 33.328C175.163 33.328 175.958 33.4827 176.651 33.792C177.344 34.0907 177.92 34.5173 178.379 35.072C178.848 35.616 179.2 36.272 179.435 37.04C179.68 37.7973 179.803 38.6347 179.803 39.552V50H175.851V39.552C175.851 38.5493 175.622 37.776 175.163 37.232C174.704 36.6773 174.006 36.4 173.067 36.4C172.384 36.4 171.744 36.5547 171.147 36.864C170.55 37.1733 169.984 37.5947 169.451 38.128V50H165.499V33.584H167.915C168.427 33.584 168.763 33.824 168.923 34.304L169.195 35.6Z" fill="white"/>
<path fill-rule="evenodd" clip-rule="evenodd" d="M0 40C0 38.8954 0.895431 38 2 38H6C7.10457 38 8 38.8954 8 40V56C8 57.1046 7.10457 58 6 58H2C0.895431 58 0 57.1046 0 56V40Z" fill="white"/>
<path fill-rule="evenodd" clip-rule="evenodd" d="M10 33C10 31.8954 10.8954 31 12 31H16C17.1046 31 18 31.8954 18 33V56C18 57.1046 17.1046 58 16 58H12C10.8954 58 10 57.1046 10 56V33Z" fill="white"/>
<path fill-rule="evenodd" clip-rule="evenodd" d="M20 27C20 25.8954 20.8954 25 22 25H26C27.1046 25 28 25.8954 28 27V56C28 57.1046 27.1046 58 26 58H22C20.8954 58 20 57.1046 20 56V27Z" fill="white"/>
<path fill-rule="evenodd" clip-rule="evenodd" d="M30 19C30 17.8954 30.8954 17 32 17H36C37.1046 17 38 17.8954 38 19V56C38 57.1046 37.1046 58 36 58H32C30.8954 58 30 57.1046 30 56V19Z" fill="white"/>
<path fill-rule="evenodd" clip-rule="evenodd" d="M40 30C40 28.8954 40.8954 28 42 28H46C47.1046 28 48 28.8954 48 30V56C48 57.1046 47.1046 58 46 58H42C40.8954 58 40 57.1046 40 56V30Z" fill="white"/>
<path d="M18.8526 20.3563C19.1017 19.8118 19.1822 19.2052 19.0836 18.6145C18.9851 18.0239 18.7121 17.4762 18.2997 17.0421L15.4223 14.2634C14.85 13.7107 14.0815 13.408 13.286 13.4219C12.4904 13.4358 11.733 13.7651 11.1803 14.3375C10.6276 14.9098 10.3249 15.6783 10.3388 16.4738C10.3527 17.2693 10.682 18.0268 11.2544 18.5795L14.1317 21.3581C14.7041 21.9108 15.0334 22.6682 15.0473 23.4638C15.0612 24.2593 14.7585 25.0277 14.2058 25.6001C13.6531 26.1724 12.8956 26.5018 12.1001 26.5157C11.3046 26.5295 10.5361 26.2268 9.96376 25.6741L7.0864 22.8955C6.674 22.4613 6.40096 21.9137 6.30242 21.323C6.20389 20.7324 6.28437 20.1258 6.5335 19.5812" stroke="white" stroke-width="2" stroke-linecap="round" stroke-linejoin="round"/>
<path d="M23.3882 9L16.9352 15.6823M8.45303 24.4658L2.00005 31.1481" stroke="white" stroke-width="2" stroke-linecap="round" stroke-linejoin="round"/>
<path d="M18.3316 7.54069L28.9547 3.34436C29.1713 3.28375 29.3708 3.48326 29.3102 3.69982L25.1138 14.323C25.0408 14.5837 24.6812 14.6092 24.5722 14.3614L22.6988 10.1036C22.6698 10.0376 22.617 9.98478 22.551 9.95579L18.2932 8.08232C18.0453 7.9733 18.0708 7.61371 18.3316 7.54069Z" fill="white" stroke="white" stroke-width="1.5" stroke-linecap="round" stroke-linejoin="round"/>
</svg>
